 <svg version="1.0" xmlns="http://www.w3.org/2000/svg" width="700.000000pt" height="311.000000pt" viewBox="0 0 700.000000 311.000000" preserveAspectRatio="xMidYMid meet">
<metadata>
Created by potrace 1.12, written by Peter Selinger 2001-2015
</metadata>
<g transform="translate(0.000000,311.000000) scale(0.100000,-0.100000)" fill="#000000" stroke="none">
<path d="M2090 2792 c0 -16 -9 -37 -20 -47 -11 -10 -20 -29 -20 -42 0 -35 -27
-40 -58 -10 -57 55 -150 70 -254 41 -47 -14 -62 -23 -74 -46 -9 -17 -14 -31
-12 -33 2 -2 21 0 43 5 59 14 113 12 143 -5 35 -18 117 -45 142 -45 35 0 52
-11 39 -26 -15 -19 -67 -18 -104 2 -23 13 -58 17 -155 16 -171 0 -340 -35
-466 -97 -105 -51 -158 -96 -212 -180 -49 -76 -67 -140 -57 -203 4 -26 8 -65
9 -87 1 -36 -2 -40 -24 -42 -14 -1 -69 -5 -123 -8 -105 -7 -127 -18 -127 -61
0 -48 31 -64 123 -64 53 0 90 -5 101 -13 11 -8 23 -39 31 -83 7 -38 20 -101
29 -141 16 -80 18 -72 -45 -178 -16 -27 -43 -78 -60 -112 -19 -40 -37 -63 -47
-63 -10 0 -46 10 -82 22 -86 28 -269 31 -345 4 -136 -48 -259 -153 -318 -271
-53 -105 -61 -139 -61 -260 0 -146 31 -233 122 -345 78 -97 195 -168 325 -199
102 -24 232 -6 342 48 79 38 196 149 238 226 36 66 52 74 102 51 18 -9 56 -16
84 -16 44 0 56 5 89 35 44 39 68 99 58 142 -19 75 -18 77 16 110 74 70 99 81
181 75 79 -5 96 3 78 36 -5 10 -21 24 -35 32 -52 27 -38 48 171 255 108 107
200 195 204 195 11 0 49 -88 49 -111 0 -12 -15 -25 -46 -38 -89 -40 -205 -161
-258 -271 -21 -44 -46 -162 -46 -220 0 -101 41 -229 101 -317 93 -134 218
-211 384 -234 233 -33 451 88 565 312 23 45 48 50 87 19 29 -23 100 -27 151
-9 32 11 77 67 87 111 4 16 0 48 -10 79 l-17 52 38 36 c84 78 107 93 137 87
41 -8 147 5 147 18 0 7 -16 27 -35 46 -19 19 -35 40 -35 47 0 13 378 393 391
393 11 0 49 -88 49 -112 0 -10 -7 -21 -15 -23 -47 -15 -80 -36 -156 -102 -37
-32 -68 -61 -68 -65 -1 -3 -19 -37 -40 -75 -102 -175 -95 -394 17 -567 44 -68
148 -161 215 -194 38 -19 101 -38 158 -48 89 -16 103 -16 182 -1 49 9 115 29
151 47 80 40 193 149 238 230 36 66 58 75 114 45 16 -8 49 -15 75 -15 89 0
177 101 151 174 -22 60 -17 72 62 135 l74 58 71 -5 c84 -6 91 5 36 58 -19 19
-35 43 -35 53 0 11 19 38 43 61 23 22 111 107 194 189 83 81 158 147 166 147
15 0 57 -78 57 -105 0 -7 -24 -25 -54 -40 -63 -32 -98 -62 -158 -136 -79 -97
-106 -156 -128 -279 -18 -106 15 -263 78 -364 42 -67 153 -169 222 -203 164
-81 326 -81 495 -2 64 30 182 139 221 204 139 230 102 521 -88 701 -103 97
-177 129 -315 138 -67 5 -126 3 -156 -3 -30 -7 -54 -8 -65 -2 -9 5 -28 43 -41
85 -14 43 -28 79 -33 82 -4 3 -8 14 -8 26 0 17 4 19 28 13 15 -4 44 -6 64 -6
29 1 49 -8 90 -39 87 -66 113 -64 195 17 40 39 43 46 43 95 -1 61 -12 85 -58
123 -31 26 -44 29 -145 37 -62 5 -121 12 -132 17 -12 5 -42 41 -69 80 -39 58
-49 84 -58 139 -11 80 -4 204 17 262 8 24 15 53 15 66 0 55 87 86 136 49 31
-23 46 -18 100 38 43 43 54 62 63 107 7 30 21 65 33 77 20 22 21 26 9 76 -15
56 -50 96 -110 123 -41 19 -198 47 -211 39 -6 -3 -10 -19 -10 -35 0 -15 -6
-30 -14 -33 -7 -3 -16 -19 -19 -36 -8 -40 -35 -51 -57 -24 -48 60 -164 80
-265 45 -46 -16 -90 -61 -74 -77 4 -3 32 1 65 10 62 16 55 18 179 -40 17 -8
50 -16 75 -17 47 -3 57 -14 28 -32 -12 -7 -29 -7 -60 2 -146 44 -283 37 -547
-28 -67 -16 -192 -85 -240 -131 -88 -85 -148 -208 -137 -284 3 -25 9 -65 12
-89 8 -53 11 -51 -135 -61 -126 -8 -152 -24 -131 -80 13 -34 47 -45 139 -45
76 0 79 -1 90 -27 20 -51 62 -268 56 -291 -3 -13 -18 -42 -32 -65 -15 -23 -42
-71 -61 -107 -19 -36 -41 -73 -50 -82 -17 -21 -54 -23 -84 -7 -65 35 -233 50
-298 28 -30 -11 -34 -10 -51 12 -11 13 -22 35 -25 49 -5 23 -23 66 -45 112
-12 23 -11 65 0 73 5 3 22 -10 36 -30 26 -33 28 -34 55 -20 35 18 52 13 112
-36 47 -39 71 -48 83 -29 3 6 14 10 23 10 23 0 76 51 92 89 19 47 5 99 -40
143 -35 35 -42 38 -96 38 -33 1 -70 7 -84 15 -14 8 -40 14 -57 15 -28 0 -39 8
-79 63 -80 109 -85 123 -87 260 -1 90 3 135 15 172 9 28 19 62 22 77 3 15 13
34 22 42 19 20 74 21 100 1 33 -25 60 -17 113 34 35 33 51 56 51 73 0 32 24
91 44 108 36 29 3 128 -57 172 -40 29 -84 44 -170 58 -72 11 -87 8 -87 -17 0
-8 -11 -28 -25 -45 -20 -24 -25 -40 -25 -86 0 -91 -18 -101 -128 -70 -67 18
-93 20 -198 15 -119 -6 -142 -10 -293 -49 -157 -40 -261 -110 -336 -229 -52
-80 -67 -143 -53 -219 6 -30 11 -68 12 -85 l1 -30 -117 -6 c-65 -4 -129 -10
-142 -13 -33 -8 -44 -57 -22 -91 16 -24 22 -25 110 -25 l93 0 15 -32 c17 -34
30 -92 50 -216 10 -60 10 -77 -2 -95 -7 -12 -27 -47 -43 -77 -16 -30 -39 -71
-51 -90 -11 -19 -26 -44 -31 -55 -13 -25 -55 -31 -92 -12 -52 27 -186 42 -266
30 -60 -8 -75 -8 -89 5 -10 8 -18 22 -18 31 0 9 -9 36 -20 60 -11 24 -23 62
-27 85 -6 41 -6 41 15 23 17 -16 26 -17 62 -7 41 11 42 11 90 -34 27 -25 56
-46 65 -46 17 0 80 31 106 52 8 7 26 32 39 56 l24 43 -19 37 c-42 81 -108 122
-175 107 -18 -4 -38 -1 -52 8 -13 8 -39 18 -58 21 -30 5 -42 16 -76 69 -60 94
-66 113 -72 230 -3 82 -1 117 11 150 9 23 19 63 23 90 4 32 13 52 27 62 27 19
88 19 113 0 30 -23 41 -19 99 38 39 38 55 61 55 80 0 35 17 78 41 100 26 25
24 70 -7 123 -39 67 -110 98 -266 119 -48 6 -48 6 -48 -23z m-516 -572 c46
-12 103 -19 127 -18 50 3 49 6 34 -99 -14 -97 -18 -97 -140 -7 -163 120 -151
109 -136 128 17 20 16 20 115 -4z m3356 5 c30 -7 70 -18 89 -24 22 -7 40 -7
52 -1 10 6 22 10 28 10 12 0 14 -63 5 -134 -9 -66 -29 -61 -160 35 -135 99
-130 95 -114 114 15 18 29 18 100 0z m-1510 -70 c14 -17 2 -86 -17 -92 -6 -2
-24 9 -40 24 -16 15 -40 35 -53 45 l-25 16 25 10 c37 16 96 14 110 -3z m184
-120 c30 -120 15 -186 -27 -116 -23 39 -21 181 3 181 4 0 15 -29 24 -65z
m1680 -22 c13 -133 13 -128 -8 -128 -30 0 -50 84 -35 150 21 91 33 85 43 -22z
m-3369 -23 c12 -64 15 -94 7 -102 -14 -14 -27 -4 -47 38 -13 28 -15 49 -10 93
13 102 26 94 50 -29z m-441 -97 c128 -63 134 -67 186 -113 58 -51 61 -69 22
-125 -33 -47 -69 -57 -181 -53 -86 3 -80 -4 -100 133 -7 44 -17 102 -23 128
-10 40 -10 50 2 57 8 6 16 10 16 10 1 0 36 -17 78 -37z m3326 22 c7 -8 18 -15
25 -15 25 0 144 -68 195 -111 61 -52 69 -76 40 -124 -29 -48 -41 -52 -150 -60
-115 -9 -124 -3 -134 95 -3 36 -13 96 -20 134 -8 37 -12 74 -9 82 7 18 37 18
53 -1z m-1632 -50 c30 -14 60 -25 67 -25 41 0 175 -89 175 -116 0 -8 -16 -36
-35 -63 -32 -45 -39 -49 -87 -55 -86 -10 -156 -7 -165 7 -4 6 -11 41 -14 77
-4 36 -11 95 -15 133 -8 78 -6 79 74 42z m1299 3 c11 -18 83 -237 83 -253 0
-14 -22 -25 -50 -25 -25 0 -38 26 -56 113 -23 112 -27 145 -21 162 8 18 33 20
44 3z m-3367 -1 c0 -1 19 -59 43 -128 24 -69 41 -131 39 -137 -2 -7 -21 -12
-42 -12 -36 0 -40 3 -50 38 -16 51 -40 159 -47 205 -5 36 -4 37 26 37 17 0 31
-1 31 -3z m1720 -37 c4 -20 10 -42 15 -50 4 -7 12 -30 16 -49 4 -20 14 -54 22
-76 19 -51 8 -67 -46 -63 -45 3 -45 3 -73 128 -25 108 -26 119 -20 135 4 12
16 15 43 13 35 -3 38 -6 43 -38z m-452 -154 c56 -29 84 -85 60 -119 -13 -17
-16 -17 -43 -3 -17 9 -39 16 -50 16 -31 0 -45 19 -45 60 0 57 26 73 78 46z
m1286 -8 c9 -12 12 -25 8 -29 -15 -16 -58 -19 -75 -7 -16 12 -16 15 -2 36 20
28 49 28 69 0z m431 2 c62 -39 88 -111 44 -125 -15 -5 -25 -2 -30 8 -5 8 -26
18 -46 22 -21 4 -41 12 -45 18 -10 15 -10 81 -1 90 12 13 46 7 78 -13z m-2137
-2 c17 -17 15 -35 -4 -42 -22 -8 -54 2 -54 18 0 15 20 36 35 36 6 0 16 -5 23
-12z m3372 -7 c8 -16 6 -22 -6 -29 -36 -20 -70 8 -42 36 18 18 36 15 48 -7z
m305 9 c3 -5 1 -10 -4 -10 -6 0 -11 5 -11 10 0 6 2 10 4 10 3 0 8 -4 11 -10z
m168 -30 c29 -33 35 -71 13 -89 -10 -9 -16 -8 -26 4 -7 8 -27 19 -44 23 -29 8
-31 12 -34 56 l-3 49 33 -7 c18 -3 45 -20 61 -36z m-3769 -88 c38 -76 41 -70
-131 -239 -264 -258 -262 -256 -278 -243 -10 8 -15 32 -15 69 0 49 6 67 42
127 23 38 63 97 90 131 26 34 48 65 48 69 0 4 16 31 35 60 l35 53 73 3 c85 4
83 4 101 -30z m1696 -19 c11 -25 20 -48 20 -52 0 -6 -223 -234 -342 -349 -58
-57 -67 -62 -80 -48 -17 17 -25 141 -9 150 5 3 24 32 41 64 18 31 54 85 80
118 27 34 58 80 69 102 11 22 26 44 33 49 13 8 147 21 160 15 4 -1 17 -23 28
-49z m1667 45 c6 -7 16 -35 23 -61 l13 -48 -74 -76 c-155 -157 -321 -318 -335
-326 -26 -15 -34 5 -35 79 -1 77 4 86 152 295 30 42 62 90 71 107 15 29 21 31
80 35 35 2 70 4 79 5 9 1 21 -4 26 -10z m-3783 -14 c23 -9 21 -22 -27 -131
-58 -135 -81 -176 -113 -204 -70 -63 -84 -79 -84 -99 0 -35 18 -58 75 -95 47
-30 55 -39 55 -66 0 -34 -29 -75 -87 -120 -31 -25 -40 -27 -86 -22 -29 3 -58
11 -66 18 -14 14 -46 143 -57 231 -5 40 -2 58 15 90 44 80 88 143 139 200 50
56 52 61 52 115 0 33 5 61 13 67 18 15 143 27 171 16z m1696 -9 c10 -12 6 -29
-16 -87 -15 -40 -38 -90 -51 -110 -13 -21 -23 -41 -23 -46 0 -11 -31 -50 -59
-76 -60 -52 -71 -66 -71 -94 0 -37 16 -57 70 -85 32 -17 47 -32 54 -55 13 -47
0 -72 -66 -130 -59 -53 -61 -54 -106 -47 -72 10 -89 26 -97 87 -4 29 -11 60
-16 69 -4 9 -11 45 -15 80 -6 64 -6 66 44 154 28 50 59 99 69 109 88 94 103
117 103 166 0 26 6 52 13 58 27 23 150 28 167 7z m1688 -11 c2 -12 -6 -39 -17
-60 -12 -21 -21 -43 -21 -47 0 -14 -78 -166 -102 -198 -12 -16 -27 -29 -33
-29 -21 0 -56 -47 -61 -82 -7 -39 5 -51 99 -109 67 -41 64 -62 -20 -138 -37
-34 -72 -61 -78 -61 -5 1 -35 7 -65 14 -51 12 -55 15 -62 47 -3 19 -17 82 -29
140 l-23 107 49 82 c28 46 71 106 96 134 59 65 69 85 69 138 1 73 23 87 135
84 53 -1 60 -3 63 -22z m-2078 -13 c12 -23 1 -57 -31 -102 -23 -32 -59 -39
-60 -11 0 9 -3 28 -6 42 -14 63 -10 75 27 81 57 10 59 10 70 -10z m1665 5 c17
-12 17 -17 6 -59 -14 -48 -43 -83 -60 -73 -9 6 -31 91 -31 121 0 12 16 18 56
24 5 0 19 -5 29 -13z m-3359 -20 c7 -27 -28 -104 -52 -113 -21 -8 -32 5 -39
47 -3 19 -8 43 -11 52 -9 29 4 38 51 38 39 0 45 -3 51 -24z m3256 -128 c12
-59 13 -55 -33 -150 -5 -10 -9 -28 -9 -42 0 -47 -23 -48 -74 -3 l-48 42 57
110 c31 60 59 114 62 118 11 18 34 -21 45 -75z m-3394 64 c21 -14 27 -136 10
-180 -9 -20 -19 -50 -24 -66 -16 -51 -35 -53 -84 -8 l-43 40 38 73 c22 41 48
91 58 112 20 39 24 42 45 29z m1702 -28 c14 -35 12 -141 -2 -167 -7 -12 -14
-40 -17 -62 -8 -56 -37 -59 -90 -7 -23 22 -41 45 -41 51 0 6 24 56 53 111 55
105 79 123 97 74z m1192 -194 c-4 -28 -2 -30 27 -30 23 0 31 5 31 18 0 10 -5
23 -12 30 -15 15 4 16 86 1 71 -12 112 -40 100 -66 -4 -10 -8 -25 -9 -34 -1
-9 -18 -43 -38 -75 -19 -33 -49 -86 -67 -119 -36 -68 -63 -100 -78 -91 -6 3
-13 28 -17 55 -4 34 -14 55 -31 70 -13 11 -24 30 -24 41 0 11 -4 28 -9 38 -5
9 -17 36 -27 60 -16 40 -16 43 0 61 15 16 15 19 1 24 -24 10 -18 26 18 40 42
18 54 12 49 -23z m-3357 10 c-3 -10 -1 -29 5 -40 15 -28 40 -9 40 31 0 33 6
34 90 16 88 -20 125 -48 80 -62 -16 -5 -18 -10 -10 -25 7 -13 3 -29 -15 -61
-14 -24 -29 -53 -35 -64 -6 -11 -16 -29 -23 -40 -7 -11 -27 -46 -45 -77 -19
-32 -38 -58 -44 -58 -5 0 -23 -10 -38 -22 -15 -13 -36 -28 -46 -34 -19 -11
-19 -12 0 -32 17 -19 17 -22 2 -37 -16 -16 -22 -45 -9 -45 3 0 15 8 26 17 18
17 19 17 32 0 17 -23 31 -22 50 5 13 19 18 21 35 10 22 -14 56 -16 64 -4 3 5
35 3 72 -3 58 -9 69 -15 78 -36 6 -14 26 -43 44 -64 39 -47 40 -77 7 -121 -37
-48 -30 -65 8 -21 19 20 39 37 45 37 6 0 16 8 21 18 6 9 11 12 11 5 0 -6 -4
-15 -10 -18 -5 -3 -10 -15 -10 -26 0 -10 -5 -19 -10 -19 -6 0 -14 -8 -18 -18
-11 -29 -87 -92 -111 -92 -28 0 -26 14 6 45 21 19 24 25 11 25 -9 0 -19 -7
-22 -16 -4 -11 -13 -14 -30 -10 -18 4 -25 0 -34 -18 -10 -22 -8 -25 15 -31
l27 -6 -30 -24 c-16 -13 -49 -27 -74 -31 -25 -4 -53 -11 -63 -16 -11 -5 -30
-7 -44 -3 -24 6 -25 7 -7 20 18 13 18 14 1 33 l-19 20 -24 -21 c-23 -20 -24
-23 -8 -34 15 -11 14 -13 -7 -18 -14 -3 -41 1 -61 10 -21 8 -46 15 -56 15 -24
0 -82 29 -82 40 0 5 7 13 16 18 25 14 9 52 -22 52 -20 0 -25 -4 -22 -22 4 -29
-20 -34 -47 -10 -34 30 -95 102 -95 112 0 6 7 10 15 10 14 0 35 29 35 49 0 15
-47 14 -52 -1 -6 -16 -37 -2 -44 19 -3 10 -12 31 -20 46 -18 36 -20 150 -1
145 6 -3 13 -22 15 -44 5 -67 15 -72 22 -9 8 73 1 187 -11 179 -5 -3 -9 -23
-9 -45 0 -28 -4 -39 -15 -39 -8 0 -15 6 -16 13 -3 39 5 84 17 98 8 8 14 27 14
42 0 29 18 46 30 28 4 -7 5 -23 2 -37 -2 -14 0 -24 7 -24 6 0 11 11 11 25 0
16 6 25 15 25 15 0 40 48 31 58 -3 2 -17 -3 -30 -12 -43 -28 -39 1 9 63 49 65
93 101 121 101 14 0 15 -3 6 -12 -19 -19 -14 -38 11 -38 13 0 34 11 47 25 l23
25 -26 0 c-31 0 -38 27 -9 36 9 3 26 10 37 16 16 9 73 20 143 27 9 1 11 -6 7
-19z m1671 -5 c-5 -18 -1 -27 15 -35 28 -16 52 5 44 38 -6 26 -11 26 92 8 35
-5 83 -33 83 -47 0 -6 -10 -14 -22 -18 -20 -8 -21 -10 -5 -16 9 -4 17 -12 17
-19 0 -6 -29 -60 -65 -119 -36 -60 -65 -112 -65 -116 0 -14 -50 -55 -57 -47
-4 4 -8 21 -9 38 -1 17 -11 42 -23 57 -37 46 -86 190 -77 227 4 14 2 24 -4 24
-5 0 -10 9 -10 19 0 14 8 21 28 24 62 9 65 9 58 -18z m3382 -7 c2 -17 11 -30
24 -34 25 -8 40 12 33 44 -6 26 0 27 77 11 94 -19 155 -65 85 -64 -33 1 -34
-5 -3 -35 28 -26 56 -21 56 10 0 45 55 17 137 -70 38 -40 42 -60 13 -67 -14
-4 -20 -14 -20 -33 0 -39 28 -47 41 -13 l10 27 24 -29 c26 -33 33 -62 43 -180
5 -61 3 -95 -11 -148 -27 -103 -67 -154 -67 -85 l0 31 -25 -23 c-14 -13 -25
-34 -25 -47 0 -24 14 -31 26 -12 10 17 27 -6 20 -29 -6 -17 -62 -73 -113 -113
-23 -17 -46 -11 -40 12 5 18 1 20 -26 17 -38 -4 -49 -33 -18 -43 28 -9 26 -23
-3 -31 -14 -3 -27 -12 -30 -21 -3 -8 -16 -13 -28 -12 -13 1 -35 -1 -50 -5 -36
-10 -68 1 -68 24 0 20 -23 32 -45 24 -15 -6 -19 -17 -16 -42 2 -15 -13 -15
-81 -1 -60 12 -127 40 -128 52 0 5 9 11 19 14 17 4 18 9 9 29 -15 31 -63 35
-55 4 8 -32 -10 -33 -50 -3 -47 35 -60 49 -78 92 -19 42 -19 62 0 37 15 -20
35 -14 35 11 0 14 -43 63 -56 63 -2 0 -4 -14 -4 -31 0 -81 -54 26 -66 130 -6
54 -5 61 10 55 20 -8 46 12 46 37 0 12 -9 19 -27 21 -27 3 -28 5 -25 58 2 30
10 68 18 84 7 16 14 35 14 43 0 7 7 13 15 13 9 0 15 -9 15 -25 0 -14 3 -25 7
-25 16 0 43 35 43 57 0 24 -14 31 -26 12 -4 -7 -9 -8 -17 0 -14 14 11 50 76
112 59 55 83 63 73 24 -6 -21 -3 -25 18 -25 13 0 27 7 30 16 4 10 15 14 33 12
21 -2 29 -9 31 -28 2 -13 10 -33 18 -44 8 -11 14 -32 14 -46 0 -14 5 -31 12
-38 8 -8 8 -15 -1 -26 -8 -10 -9 -16 -1 -21 5 -3 10 -14 10 -24 0 -10 8 -29
19 -42 30 -39 35 -69 15 -84 -15 -11 -16 -15 -5 -29 8 -9 10 -26 6 -46 -7 -33
9 -41 34 -17 10 10 16 8 28 -9 l14 -22 24 24 c13 13 22 30 19 37 -3 8 2 20 11
27 22 18 18 30 -10 30 -14 0 -26 5 -26 10 -1 6 -2 14 -3 20 0 5 -7 15 -13 22
-7 6 -13 20 -13 29 0 9 -7 22 -15 29 -8 7 -15 18 -15 26 0 7 -6 19 -13 26 -8
7 -17 27 -21 43 -4 17 -18 60 -32 97 -14 38 -23 76 -19 87 3 11 1 22 -5 26
-17 11 -11 23 18 34 44 16 67 10 70 -21z m-3535 -33 c-1 -11 4 -23 12 -27 17
-10 55 -84 55 -108 0 -10 5 -22 10 -25 6 -3 10 -21 10 -40 0 -19 5 -37 10 -40
6 -3 7 -17 4 -31 -4 -16 0 -38 12 -60 16 -28 17 -38 6 -54 -8 -14 -9 -26 -3
-38 7 -12 5 -28 -6 -50 -17 -34 -9 -60 8 -29 8 13 23 18 57 18 26 0 66 0 90 0
23 0 42 5 42 11 0 6 12 8 33 3 17 -3 52 -9 77 -12 37 -4 54 -15 97 -57 54 -52
65 -83 38 -106 -8 -7 -12 -16 -9 -21 3 -5 -6 -23 -21 -40 -14 -18 -23 -34 -20
-37 3 -4 16 5 28 19 12 14 30 31 40 38 15 12 17 11 17 -8 0 -27 -107 -141
-132 -141 -11 0 -18 7 -18 20 0 25 -41 28 -61 4 -11 -14 -10 -18 6 -30 18 -13
18 -14 0 -34 -10 -11 -31 -20 -46 -20 -16 0 -46 -7 -68 -16 -28 -11 -45 -13
-57 -6 -15 8 -13 11 14 17 37 8 43 25 9 25 -13 0 -28 5 -35 12 -9 9 -18 9 -37
0 -14 -7 -34 -12 -44 -12 -11 0 -22 -7 -25 -15 -7 -19 -63 -13 -113 13 -37 18
-44 42 -13 42 17 0 18 3 8 25 -9 20 -18 25 -37 23 -21 -2 -25 -8 -23 -27 2
-13 0 -21 -5 -19 -47 22 -63 34 -74 54 -7 13 -16 24 -20 24 -13 0 -39 31 -39
46 0 8 8 14 19 14 16 0 36 -19 60 -59 5 -7 15 -11 22 -9 9 3 7 10 -9 26 -12
12 -22 27 -22 32 0 6 -7 10 -15 10 -9 0 -15 9 -15 23 -1 20 -31 67 -44 67 -3
0 -6 -13 -6 -30 0 -16 -4 -30 -10 -30 -22 0 -69 134 -70 199 0 20 2 22 16 10
14 -11 19 -9 35 11 10 14 19 29 19 33 0 15 -33 20 -51 8 -17 -10 -19 -8 -19
11 1 34 25 127 46 173 l17 40 11 -27 c16 -43 56 -29 56 19 0 20 -4 22 -25 17
-18 -4 -25 -2 -25 9 0 17 120 147 137 147 6 0 13 -10 15 -22 4 -31 43 -36 57
-9 9 17 8 22 -10 31 -16 9 -18 14 -8 26 17 20 44 13 42 -11z m1688 -8 c-12
-12 -43 -6 -48 10 -2 6 4 13 14 15 23 6 47 -12 34 -25z m1693 18 c7 -20 -21
-32 -37 -16 -9 9 -8 14 3 21 21 13 27 12 34 -5z m-4541 -69 c38 -30 52 -76 22
-76 -18 0 -18 -2 -3 -35 10 -22 8 -29 -15 -53 -15 -16 -27 -39 -27 -53 0 -14
-9 -34 -20 -45 -32 -30 -38 -37 -66 -72 -25 -31 -30 -33 -82 -30 -56 3 -56 3
-65 40 -8 32 -5 42 22 82 17 24 31 51 31 59 0 8 7 20 15 27 8 7 15 18 15 25 0
7 7 18 15 25 8 7 15 21 15 32 0 11 15 34 33 51 19 18 36 40 40 50 8 20 13 18
70 -27z m2771 19 c-5 -21 -3 -25 18 -25 13 0 29 9 36 20 18 29 50 26 58 -7 4
-15 13 -38 20 -52 8 -14 14 -32 14 -39 0 -7 8 -24 17 -38 13 -21 14 -32 6 -54
-7 -20 -7 -32 0 -39 10 -10 37 -77 37 -93 0 -4 -7 -14 -16 -23 -13 -12 -14
-19 -5 -28 17 -17 13 -38 -10 -63 -18 -19 -18 -22 -4 -28 9 -3 18 0 21 9 7 17
59 20 69 4 5 -7 13 -5 25 6 10 9 31 16 47 14 15 -1 36 2 47 6 10 4 40 3 68 -4
27 -6 59 -11 71 -11 14 0 43 -23 81 -66 l58 -65 -21 -20 c-27 -25 -27 -49 -1
-49 36 0 22 -39 -34 -96 -31 -30 -64 -54 -75 -54 -33 0 -25 15 34 66 30 26 55
54 55 61 0 22 -11 15 -51 -31 -26 -30 -51 -47 -76 -53 -43 -10 -56 -38 -24
-48 27 -8 27 -22 1 -30 -11 -3 -20 -11 -20 -16 0 -5 -22 -9 -50 -9 -27 0 -50
-4 -50 -10 0 -5 -17 -10 -37 -9 l-38 1 33 10 c17 6 32 15 32 20 0 5 -4 7 -9 4
-5 -3 -25 1 -45 9 -43 18 -60 12 -53 -21 4 -21 0 -24 -25 -24 -25 0 -28 3 -23
20 8 24 -10 27 -32 5 -16 -17 -31 -15 -95 13 -47 20 -50 42 -6 42 l31 0 -23
25 c-13 14 -31 25 -39 25 -9 0 -36 18 -61 40 -62 55 -63 32 -1 -29 28 -28 51
-53 51 -56 0 -3 -10 -5 -22 -5 -37 0 -148 126 -132 151 4 7 13 4 25 -7 18 -16
19 -16 19 12 0 32 -15 54 -37 54 -7 0 -13 -9 -13 -20 0 -32 -27 -23 -41 12
-63 162 -57 299 19 441 36 67 83 127 100 127 6 0 12 4 12 10 0 9 47 39 63 40
4 0 5 -11 1 -25z m-1079 -41 c36 -36 46 -74 20 -74 -8 0 -15 5 -15 10 0 13
-61 75 -79 81 -7 3 -9 12 -6 22 9 21 31 11 80 -39z m1663 29 c40 -38 65 -80
56 -94 -5 -9 -11 -7 -20 6 -20 27 -30 10 -14 -23 8 -15 16 -30 17 -34 2 -4 -8
-18 -22 -30 -15 -13 -25 -31 -23 -43 3 -27 -18 -62 -41 -70 -10 -3 -26 -21
-35 -39 -9 -19 -23 -37 -32 -40 -20 -8 -82 -8 -110 0 -34 9 -20 74 35 169 26
44 56 97 67 118 10 22 31 45 47 53 15 8 27 23 27 34 0 27 13 25 48 -7z m-1706
-66 c63 -62 71 -81 47 -103 -10 -9 -19 -28 -19 -41 0 -14 -14 -37 -34 -56 -19
-18 -37 -43 -41 -57 -13 -43 -25 -50 -85 -50 -79 0 -90 6 -90 46 0 31 44 128
75 164 7 8 14 20 16 25 15 39 65 115 75 115 7 0 33 -19 56 -43z m1941 -82 c4
-22 14 -65 20 -95 13 -57 12 -90 -3 -90 -18 0 -40 33 -40 61 0 16 -7 46 -15
66 -16 37 -20 85 -8 97 17 17 38 -2 46 -39z m-3379 19 c3 -9 6 -31 6 -49 0
-19 4 -36 9 -39 20 -13 22 -106 2 -106 -7 0 -45 119 -57 178 -6 28 -4 32 14
32 11 0 23 -7 26 -16z m1691 -11 c3 -16 11 -48 17 -73 17 -66 16 -115 -2 -115
-19 0 -34 34 -55 122 -18 76 -15 93 15 93 13 0 21 -9 25 -27z m-1751 -128 c8
-21 -6 -150 -14 -134 -11 20 -22 127 -15 139 9 14 22 12 29 -5z m3364 -24 c5
-15 6 -34 2 -41 -13 -21 -40 6 -40 40 0 49 21 50 38 1z m-3838 -81 c0 -11 -4
-20 -10 -20 -5 0 -10 2 -10 4 0 2 -3 11 -6 20 -4 11 -1 16 10 16 9 0 16 -8 16
-20z m1680 5 c0 -15 -26 -32 -36 -23 -2 3 -2 13 2 22 8 20 34 21 34 1z m1685
-6 c0 -7 -8 -15 -17 -17 -18 -3 -25 18 -11 32 10 10 28 1 28 -15z m1705 0 c0
-24 -23 -21 -28 4 -2 10 3 17 12 17 10 0 16 -9 16 -21z m-4640 -199 c0 -5 -7
-10 -15 -10 -8 0 -15 5 -15 10 0 6 7 10 15 10 8 0 15 -4 15 -10z m1672 -22
c-15 -15 -26 -4 -18 18 5 13 9 15 18 6 9 -9 9 -15 0 -24z m-477 -258 c3 -5 -1
-10 -10 -10 -9 0 -13 5 -10 10 3 6 8 10 10 10 2 0 7 -4 10 -10z"></path>
<path d="M4095 1200 c3 -5 17 -10 31 -10 13 0 24 5 24 10 0 6 -14 10 -31 10
-17 0 -28 -4 -24 -10z"></path>
<path d="M470 1200 c0 -12 37 -12 65 0 15 7 10 9 -22 9 -24 1 -43 -3 -43 -9z"></path>
<path d="M745 1200 c3 -5 17 -10 31 -10 13 0 24 5 24 10 0 6 -14 10 -31 10
-17 0 -28 -4 -24 -10z"></path>
<path d="M325 1110 c-3 -5 1 -10 9 -10 8 0 18 5 21 10 3 6 -1 10 -9 10 -8 0
-18 -4 -21 -10z"></path>
<path d="M300 1074 c0 -8 5 -12 10 -9 6 3 10 10 10 16 0 5 -4 9 -10 9 -5 0
-10 -7 -10 -16z"></path>
<path d="M540 640 c0 -5 5 -10 11 -10 5 0 7 5 4 10 -3 6 -8 10 -11 10 -2 0 -4
-4 -4 -10z"></path>
<path d="M210 600 c0 -11 5 -20 10 -20 6 0 10 9 10 20 0 11 -4 20 -10 20 -5 0
-10 -9 -10 -20z"></path>
<path d="M320 430 c0 -5 9 -10 21 -10 11 0 17 5 14 10 -3 6 -13 10 -21 10 -8
0 -14 -4 -14 -10z"></path>
<path d="M457 345 c3 -9 19 -15 41 -15 42 0 33 14 -15 23 -26 5 -31 3 -26 -8z"></path>
<path d="M740 340 c0 -5 13 -10 29 -10 17 0 33 5 36 10 4 6 -8 10 -29 10 -20
0 -36 -4 -36 -10z"></path>
<path d="M680 310 c0 -5 5 -10 10 -10 6 0 10 5 10 10 0 6 -4 10 -10 10 -5 0
-10 -4 -10 -10z"></path>
<path d="M2410 1200 c20 -13 50 -13 50 0 0 6 -15 10 -32 10 -25 0 -29 -3 -18
-10z"></path>
<path d="M5780 1200 c0 -5 9 -10 20 -10 11 0 20 5 20 10 0 6 -9 10 -20 10 -11
0 -20 -4 -20 -10z"></path>
<path d="M5960 1135 c0 -2 16 -21 35 -41 19 -19 35 -40 35 -45 0 -5 7 -9 15
-9 22 0 19 6 -27 55 -38 40 -58 54 -58 40z"></path>
<path d="M5382 1095 c-11 -14 -24 -25 -30 -25 -5 0 -12 -7 -16 -15 -10 -27 14
-16 50 21 36 39 39 44 25 44 -5 0 -18 -11 -29 -25z"></path>
<path d="M6118 918 c-6 -18 3 -58 13 -58 12 0 12 57 0 64 -5 4 -11 1 -13 -6z"></path>
<path d="M5254 894 c-4 -14 -2 -35 4 -47 9 -19 11 -15 11 26 1 52 -5 61 -15
21z"></path>
<path d="M6141 802 c-14 -27 -14 -45 1 -60 8 -8 15 -9 25 -1 17 15 17 40 -1
64 -13 18 -14 18 -25 -3z"></path>
<path d="M5251 668 c0 -13 4 -32 9 -43 7 -15 9 -10 9 23 1 23 -3 42 -9 42 -5
0 -10 -10 -9 -22z"></path>
<path d="M6120 625 c0 -15 4 -24 10 -20 6 3 10 12 10 20 0 8 -4 17 -10 20 -6
4 -10 -5 -10 -20z"></path>
<path d="M5555 550 c-3 -5 -1 -10 4 -10 6 0 11 5 11 10 0 6 -2 10 -4 10 -3 0
-8 -4 -11 -10z"></path>
<path d="M5340 480 c0 -9 3 -12 49 -50 29 -24 31 -24 31 -5 0 8 -5 15 -11 15
-6 0 -20 11 -31 25 -20 25 -38 33 -38 15z"></path>
<path d="M6026 475 c-3 -8 -17 -20 -31 -27 -22 -10 -36 -38 -18 -38 18 0 73
47 73 63 0 21 -16 23 -24 2z"></path>
<path d="M5540 340 c0 -5 13 -10 30 -10 17 0 33 -7 39 -17 5 -10 13 -15 17
-10 13 13 -28 47 -58 47 -15 0 -28 -4 -28 -10z"></path>
<path d="M5807 343 c-16 -15 -5 -25 21 -18 41 10 51 25 16 25 -17 0 -34 -3
-37 -7z"></path>
<path d="M1992 1095 c-6 -14 -16 -25 -22 -25 -5 0 -10 -7 -10 -15 0 -8 5 -15
10 -15 6 0 10 6 10 14 0 7 11 21 25 30 27 18 33 36 12 36 -8 0 -19 -11 -25
-25z"></path>
<path d="M1873 914 c-3 -8 -1 -20 6 -27 8 -8 11 -4 11 16 0 30 -7 35 -17 11z"></path>
<path d="M1877 663 c-11 -10 -8 -51 3 -58 6 -4 10 8 10 29 0 37 -2 41 -13 29z"></path>
<path d="M2205 617 c-4 -10 -5 -21 -1 -24 10 -10 18 4 13 24 -4 17 -4 17 -12
0z"></path>
<path d="M2586 425 c-3 -9 0 -15 9 -15 8 0 15 7 15 15 0 8 -4 15 -9 15 -5 0
-11 -7 -15 -15z"></path>
<path d="M2140 340 c0 -5 16 -10 36 -10 21 0 33 4 29 10 -3 6 -19 10 -36 10
-16 0 -29 -4 -29 -10z"></path>
<path d="M2413 343 c-7 -2 -13 -9 -13 -13 0 -11 71 -1 85 11 10 10 -51 11 -72
2z"></path>
<path d="M940 1095 c13 -14 26 -22 29 -19 3 4 0 9 -6 11 -7 3 -13 11 -13 19 0
8 -8 14 -17 14 -14 0 -12 -4 7 -25z"></path>
<path d="M3678 1097 c-16 -13 -28 -27 -28 -33 0 -5 -13 -21 -30 -34 -16 -14
-29 -35 -30 -48 0 -35 21 -22 49 27 13 24 39 58 58 77 38 38 23 46 -19 11z"></path>
<path d="M3567 923 c-11 -10 -8 -43 3 -43 6 0 10 11 10 25 0 26 -2 29 -13 18z"></path>
<path d="M3532 813 c-16 -29 -15 -55 2 -79 14 -18 15 -18 21 9 4 16 3 43 -2
60 -9 31 -9 31 -21 10z"></path>
<path d="M3560 653 c0 -15 5 -35 10 -43 7 -11 10 -6 10 22 0 20 -4 40 -10 43
-6 4 -10 -6 -10 -22z"></path>
<path d="M3897 633 c-10 -9 -9 -23 2 -23 5 0 11 7 15 15 5 15 -5 20 -17 8z"></path>
<path d="M3830 340 c0 -5 14 -10 31 -10 17 0 28 4 24 10 -3 6 -17 10 -31 10
-13 0 -24 -4 -24 -10z"></path>
<path d="M4125 340 c-4 -6 7 -10 24 -10 17 0 31 5 31 10 0 6 -11 10 -24 10
-14 0 -28 -4 -31 -10z"></path>
<path d="M4300 1095 c0 -8 7 -15 15 -15 9 0 12 6 9 15 -4 8 -10 15 -15 15 -5
0 -9 -7 -9 -15z"></path>
</g>
</svg>